<svg xmlns="http://www.w3.org/2000/svg" enable-background="new 0 0 24 24" viewBox="0 0 24 24"><polygon fill="#FFEB3B" points="7.579 23.5 16.361 23.5 19.256 5.822 4.685 5.822 7.579 23.5"/><path fill="#212121" d="M16.786,24H7.154L4.096,5.322h15.748L16.786,24L16.786,24z M8.004,23h7.933l2.73-16.679H5.274L8.004,23L8.004,23z"/><polygon fill="#FAFAFA" points="20 5.822 4 5.822 4 3.299 5.778 3.299 20 3.299 20 5.822"/><path fill="#212121" d="M20.5,6.322h-17V2.799h17V6.322L20.5,6.322z M4.5,5.322h15V3.799h-15V5.322L4.5,5.322z"/><polygon fill="#FAFAFA" points="6.974 .5 16.913 .5 18.111 3.3 5.778 3.299 6.974 .5"/><path fill="#212121" d="M18.869,3.8L5.02,3.799L6.644,0h10.599L18.869,3.8L18.869,3.8z M6.535,2.799L17.354,2.8L16.583,1H7.304L6.535,2.799L6.535,2.799z"/><polygon fill="#FAFAFA" points="4.29 10.3 19.602 10.299 18.163 18.03 5.728 18.03 4.29 10.3"/><path fill="#212121" d="M18.579,18.53H5.312L3.689,9.8l16.514-0.001L18.579,18.53L18.579,18.53z M6.143,17.53h11.604L19,10.799L4.893,10.8L6.143,17.53L6.143,17.53z"/><path fill="#DECD33" d="M12,18.53H7.272L8.004,23H12V18.53L12,18.53z M12,6.322H5.274l0.569,3.478l6.157,0V6.322L12,6.322z"/><path fill="#1D1D1D" d="M7.272,18.53H6.259L7.154,24H12v-1H8.004L7.272,18.53L7.272,18.53z M12,6.322H4.259L4.829,9.8l1.014,0L5.274,6.322H12L12,6.322z"/><polygon fill="#DADADA" points="5.02 3.799 4.5 3.799 4.5 5.322 12 5.322 12 3.799 5.02 3.799"/><polygon fill="#1D1D1D" points="5.447 2.799 3.5 2.799 3.5 6.322 4.259 6.322 12 6.322 12 5.322 4.5 5.322 4.5 3.799 5.02 3.799 5.447 2.799"/><polygon fill="#DADADA" points="12 1 7.304 1 6.535 2.799 12 2.799 12 1"/><polygon fill="#1D1D1D" points="12 0 6.644 0 5.447 2.799 5.02 3.799 12 3.799 12 2.799 6.535 2.799 7.304 1 12 1 12 0"/><polygon fill="#DADADA" points="12 10.799 4.893 10.8 6.143 17.53 12 17.53 12 10.799"/><polygon fill="#1D1D1D" points="12 9.799 5.843 9.799 4.829 9.8 3.689 9.8 5.312 18.53 6.259 18.53 7.272 18.53 12 18.53 12 17.53 6.143 17.53 4.893 10.8 12 10.799 12 9.799"/></svg>