<svg width="20" height="20" viewBox="0 0 20 20" fill="none" xmlns="http://www.w3.org/2000/svg">
<path fill-rule="evenodd" clip-rule="evenodd" d="M16.4267 16.01C16.0362 16.4005 15.4031 16.4005 15.0125 16.01L4.40593 5.4034C4.01541 5.01287 4.01541 4.37971 4.40593 3.98918C4.79645 3.59866 5.42962 3.59866 5.82014 3.98918L16.4267 14.5958C16.8173 14.9863 16.8173 15.6195 16.4267 16.01Z" fill="#0C0E13"/>
<path fill-rule="evenodd" clip-rule="evenodd" d="M16.4267 3.98918C16.8173 4.37971 16.8173 5.01287 16.4267 5.4034L5.82014 16.01C5.42962 16.4005 4.79645 16.4005 4.40593 16.01C4.01541 15.6195 4.01541 14.9863 4.40593 14.5958L15.0125 3.98918C15.4031 3.59866 16.0362 3.59866 16.4267 3.98918Z" fill="#0C0E13"/>
</svg>