<svg width="36" height="36" viewBox="0 0 36 36" fill="none" xmlns="http://www.w3.org/2000/svg">
<path fill-rule="evenodd" clip-rule="evenodd" d="M18.0749 35.1061C27.5086 35.1061 35.1561 27.4586 35.1561 18.0249C35.1561 8.59122 27.5086 0.943695 18.0749 0.943695C8.64118 0.943695 0.993652 8.59122 0.993652 18.0249C0.993652 27.4586 8.64118 35.1061 18.0749 35.1061ZM9.60022 11.5351L12.7902 8.34516L12.7902 8.34514L12.7902 8.34516H23.8801V11.068H12.7902V11.066L11.5242 12.332V14.0859L9.60022 16.0506V11.5393H9.60445L9.60022 11.5351ZM12.8958 13.0438H23.9716V15.6769L26.5506 18.2559V21.9207H10.3168V18.2559L12.8958 15.6769V13.0438ZM10.3168 23.6581H26.5506L22.6688 28.8431H14.4976L10.3168 23.6581ZM14.4296 15.02H16.4928V17.0832H14.4296V15.02ZM17.4021 15.02H19.4653V17.0832H17.4021V15.02ZM22.4373 15.02H20.3741V17.0832H22.4373V15.02ZM14.4296 17.9792H16.4928V20.0424H14.4296V17.9792ZM19.4653 17.9792H17.4021V20.0424H19.4653V17.9792ZM20.3741 17.9792H22.4373V20.0424H20.3741V17.9792Z" fill="white"/>
</svg>
