<svg width="24" height="24" viewBox="0 0 24 24" fill="none" xmlns="http://www.w3.org/2000/svg">
<path d="M14.0826 7.07607C13.909 7.25311 13.8118 7.49114 13.8118 7.73906C13.8118 7.98697 13.909 8.225 14.0826 8.40204L15.598 9.91743C15.775 10.091 16.013 10.1882 16.2609 10.1882C16.5089 10.1882 16.7469 10.091 16.9239 9.91743L20.4946 6.34679C20.9708 7.39922 21.115 8.5718 20.908 9.70826C20.7009 10.8447 20.1524 11.8911 19.3356 12.7079C18.5187 13.5247 17.4724 14.0732 16.3359 14.2803C15.1994 14.4874 14.0269 14.3432 12.9744 13.8669L6.42983 20.4115C6.05304 20.7883 5.54201 21 5.00915 21C4.47629 21 3.96525 20.7883 3.58847 20.4115C3.21168 20.0347 3 19.5237 3 18.9909C3 18.458 3.21168 17.947 3.58847 17.5702L10.1331 11.0256C9.65683 9.97314 9.51263 8.80056 9.71969 7.66409C9.92676 6.52763 10.4753 5.48127 11.2921 4.66444C12.1089 3.84761 13.1553 3.29911 14.2917 3.09205C15.4282 2.88498 16.6008 3.02918 17.6532 3.50542L14.092 7.0666L14.0826 7.07607Z" stroke="white" stroke-linecap="round" stroke-linejoin="round"/>
</svg>
