<svg width="20" height="20" viewBox="0 0 20 20" fill="none" xmlns="http://www.w3.org/2000/svg">
<path fill-rule="evenodd" clip-rule="evenodd" d="M8.20727 7.62639C8.59779 8.01691 8.59779 8.65008 8.20727 9.0406L4.74771 12.5002L8.20727 15.9597C8.59779 16.3502 8.59779 16.9834 8.20727 17.3739C7.81674 17.7645 7.18358 17.7645 6.79306 17.3739L2.62639 13.2073C2.43885 13.0197 2.3335 12.7654 2.3335 12.5002C2.3335 12.2349 2.43885 11.9806 2.62639 11.7931L6.79306 7.62639C7.18358 7.23586 7.81674 7.23586 8.20727 7.62639Z" fill="#0C0E13"/>
<path fill-rule="evenodd" clip-rule="evenodd" d="M16.6668 2.3335C17.2191 2.3335 17.6668 2.78121 17.6668 3.3335V9.16683C17.6668 10.3161 17.2103 11.4183 16.3976 12.231C15.585 13.0436 14.4828 13.5002 13.3335 13.5002H3.3335C2.78121 13.5002 2.3335 13.0524 2.3335 12.5002C2.3335 11.9479 2.78121 11.5002 3.3335 11.5002H13.3335C13.9523 11.5002 14.5458 11.2543 14.9834 10.8167C15.421 10.3792 15.6668 9.78567 15.6668 9.16683V3.3335C15.6668 2.78121 16.1145 2.3335 16.6668 2.3335Z" fill="#0C0E13"/>
</svg>