<svg width="36" height="35" viewBox="0 0 36 35" fill="none" xmlns="http://www.w3.org/2000/svg">
<path fill-rule="evenodd" clip-rule="evenodd" d="M18.0749 34.4311C27.5086 34.4311 35.1561 26.7836 35.1561 17.3499C35.1561 7.91617 27.5086 0.268646 18.0749 0.268646C8.64118 0.268646 0.993652 7.91617 0.993652 17.3499C0.993652 26.7836 8.64118 34.4311 18.0749 34.4311ZM13.4297 13.5647L18.0317 8.96272L17.5699 12.3231L17.2494 14.6555L17.1789 15.1681C16.98 15.249 16.7937 15.3543 16.6236 15.4804L16.153 15.2885L13.9728 14.3999L10.5398 13.0006L13.4681 15.2741L15.3278 16.7179L15.6544 16.9715C15.6152 17.149 15.5944 17.3335 15.5944 17.5229C15.5944 17.6055 15.5984 17.6872 15.6061 17.7678L15.3278 17.9839L13.4681 19.4277L10.5398 21.7011L13.9728 20.3018L16.153 19.4132L16.3514 19.3323C16.5995 19.5769 16.8975 19.7708 17.2289 19.8974L17.2494 20.0462L17.5699 22.3786L18.0315 25.7375L13.3821 21.0882L11.3454 22.0078L18.0753 28.7377L24.7908 22.0222L22.6792 21.1774L18.1175 25.7392L18.5793 22.3786L18.8998 20.0462L18.9141 19.9423C19.2805 19.8245 19.6105 19.6258 19.8833 19.3672L19.9962 19.4132L22.1764 20.3018L25.6094 21.7011L22.6811 19.4277L20.8214 17.9839L20.6549 17.8546C20.6691 17.746 20.6764 17.6353 20.6764 17.5229C20.6764 17.305 20.649 17.0936 20.5974 16.8918L20.8214 16.7179L22.6811 15.2741L25.6094 13.0006L22.1764 14.3999L19.9962 15.2885L19.6034 15.4486C19.4087 15.3105 19.1936 15.1992 18.9636 15.12L18.8998 14.6555L18.5793 12.3231L18.1173 8.96107L22.618 13.4618L24.7012 12.5886L18.0753 5.96273L11.3668 12.6712L13.4297 13.5647ZM12.0152 14.9792L10.3672 13.6708L6.68782 17.3502L10.3606 21.023L11.9933 19.6993L9.64417 17.3502L12.0152 14.9792ZM24.1149 19.7418L25.771 21.042L29.4628 17.3502L25.756 13.6435L24.1551 14.9989L26.5064 17.3502L24.1149 19.7418Z" fill="white"/>
</svg>
