<svg width="36" height="35" viewBox="0 0 36 35" fill="none" xmlns="http://www.w3.org/2000/svg">
<path fill-rule="evenodd" clip-rule="evenodd" d="M35.1561 17.7C35.1561 27.1337 27.5086 34.7812 18.0749 34.7812C8.64118 34.7812 0.993652 27.1337 0.993652 17.7C0.993652 8.26627 8.64118 0.618744 18.0749 0.618744C27.5086 0.618744 35.1561 8.26627 35.1561 17.7ZM5.69099 20.9178L18.0749 7.02365L30.4588 20.9178H21.9182L27.0425 26.6671H21.9182L18.0749 22.3551L14.2316 26.6671H9.10723L14.2316 20.9178H5.69099ZM27.0426 19.8353H21.0642L18.075 16.419L15.0858 19.8353H9.10733L18.075 9.58652L27.0426 19.8353ZM18.075 15.122L14.6982 18.9812H10.9895L18.075 10.8835L25.1605 18.9812H21.4517L18.075 15.122Z" fill="white"/>
</svg>
