<svg width="24" height="24" viewBox="0 0 24 24" fill="none" xmlns="http://www.w3.org/2000/svg">
<path d="M4.24358 5.55883L0 9.80241V14.1976L4.24509 18.4427V18.411H5.65685V19.8228H5.62516L9.80241 24H11.2157V17.4271L5.78856 12L11.2157 6.57287V0H9.80241L5.62668 4.17573V5.55883H4.24358Z" fill="white"/>
<path d="M14.1976 24H12.7843V17.4271L18.2114 12L12.7843 6.57287V5.98384e-07H14.1976L18.4412 4.24358V5.62668H19.8243L24 9.80241V14.1976L19.8228 18.3748V18.3431H18.411V19.7549H18.4427L14.1976 24Z" fill="white"/>
<path d="M11.3768 8.39215L8.39216 11.3768V12.6317L11.3683 15.6078H12.591L15.5294 12.6694V11.3392L12.5824 8.39215H11.3768Z" fill="white"/>
</svg>
