<svg xmlns="http://www.w3.org/2000/svg" viewBox="0 0 377 400"><path d="M11,212.11c-2.53-.65-5.14-1.05-8.32,1.44,2.55-3.62,8.13-4.29,12.6-2.5a18,18,0,0,1,5.11,2.71c2.09,1.87,3.68,3.55-2,10.7,1.51.06,3.66-.3,4.48-1.08,6.09-5.82,2-12.07,1.23-13.16-2.31-3.49-7.78-6.41-9.59-6.65a9.71,9.71,0,0,0-5,.7,17.21,17.21,0,0,0-5,2.84,14.18,14.18,0,0,0-2.93,3.75,12.55,12.55,0,0,0-1.46,5.3c-.31,4.06.46,10,4.32,12.84C4.43,229,6.59,218.69,11,212.11Z" fill="#fff"></path><path d="M27.62,284.5a14.13,14.13,0,0,0-2-8.8c-.47-.75-1-1.45-.13-2.12,1.66,3.24,4.43,5.84,4.14,10.13,2.44,1.48,22,4.15,42.92,36.4-1-6.69-8.73-20.94-11.47-24.95A58.45,58.45,0,0,0,51.76,285c-3.34-3-14-11.34-15-12.29,0-.59-.07-1.44-.11-2.3.85,2.27,9.85.48,10.69.09-.18-1.26-.47-2.24-.76-4-2,0-23.06-9.88-23.51-10.31a29.79,29.79,0,0,0,.83,4.44,9.27,9.27,0,0,1-5.7-4.93,13.64,13.64,0,0,1-1.71-8.18,19.62,19.62,0,0,1-2.16-4.32,27.34,27.34,0,0,1,.78-16c1.21-3.41,5.57-10.55,5.57-10.55l-1.82-1.33s-6.61,14.86-8,15.2c1.62-4.49,6.61-16.07,6.61-16.07l-1.66-.78s-7.06,14.76-7.08,16.59c-.43-1,.56-8,5.65-17.08-.55-.18-1.23-.51-1.73-.67A51,51,0,0,0,5.43,244c.29,2.89.94,5.88,1.54,8.82a26.07,26.07,0,0,0,1,4.11c.78,2.05,1.7,4.06,2.66,6,1.75,3.59,3.6,7.13,5.35,10.71.78,1.6,2.65,7.08,2.87,7.78.68,2.18,1,4.24-.16,6.47-2.61,5-8.83,2.49-8.83,2.49.73,2.58,3.81,3.25,5.39,3.39C22.81,294.39,26.89,288.38,27.62,284.5Z" fill="#fff"></path><path d="M45.72,187.69c-2.57.7-9.63.69-12.95-.49C25.25,184.54,20.45,172.75,20,170c-1.54-8.62-.2-11.06.75-13.2,1.45-3.26,5.25-5.14,9.38-4.84a3.56,3.56,0,0,1,3.5,4.58,6.52,6.52,0,0,1-3,3.88,22.66,22.66,0,0,1-4.68,1,12.91,12.91,0,0,0,4.13,2s9.11.4,10.4-7.69c.63-4,.15-7.36-2.92-10.26s-7.53-3-9.15-2.92c2.4-1.47,4-1.32,8.91.38,9.6,3.32,8.41-5.69,7.75-9.34-.92-5-3.69-6.41-3.69-6.41,2.46,12-5.56,6.89-8.24,5.49a8.56,8.56,0,0,0-5.08-.42c-2.06.5-3.95,2.56-4.12,2.66a12,12,0,0,0-1.85-4.61,10.3,10.3,0,0,0-3.6-3.15c-5.6-3.42-10.44,1-10.85,1.27h0a16.39,16.39,0,0,1,3.19,1.16A14.87,14.87,0,0,1,14,132.19a18.56,18.56,0,0,1,2.38,4.9c.78,2.51-.13,4.9-.64,7.26-1,4.52-4.17,11-4.4,20.27-.31,12.62,8.4,24.23,11.49,26.86a44.84,44.84,0,0,0,7.28,4c-2.45,1.56-10.9,8.06-10.9,8.06l2,1.36,7.43-5.42-6.2,6.63,1.87,1.67s7-4.36,7-4.24c-1.38,1.79-6.17,5.56-6.17,5.56a28.77,28.77,0,0,0,1.94,3.38c2.71-2.28,6.85-7.05,9.86-9.36a6.16,6.16,0,0,1-.37,1.22,23.23,23.23,0,0,0-3,11.45,14.42,14.42,0,0,0,1.92,7.66c2.06,3.26,4.39,4.32,7.2,5.19-3.24-4.66-7.94-14.07,2.89-22.9C45.66,205.69,45.72,191.47,45.72,187.69Zm-25.49-54a.86.86,0,0,1,0,.32l-4.19-5.22A6.74,6.74,0,0,1,20.23,133.69Zm-1.8,3.58a14.94,14.94,0,0,0-4.19-7.3C18.15,132,18.57,133.62,18.43,137.27Z" fill="#fff"></path><path d="M45.66,231.26a55.63,55.63,0,0,0-17.08-.78c-3.52.38-6.92.51-10.06-1.46l-2-1.26a19.2,19.2,0,0,0-1.34,7.39c.11,1.46.75,2,2.29,2H22a1.61,1.61,0,0,1-.45,2.3,9.59,9.59,0,0,0-2.06,2.36,13.44,13.44,0,0,0,.5,14.47,4.33,4.33,0,0,0,2.2,2.25c-.21-1-.29-1.62-.48-2.37-.88-3.46.64-6.33,4.11-6.75,2.43-.29,4.73-.75,6.15-3.12.33-.56,1.17-.8,1.74-1.16,1.91,1.28,2,1.46.9,3A7.38,7.38,0,0,0,33,252.9a12.41,12.41,0,0,0,1.68,5,5.92,5.92,0,0,0,2.19,2c2.42,1.44,5,2.12,8.08.77-3.68-1.67-5.11-4.56-4.35-8a6.13,6.13,0,0,1,5-5.07Z" fill="#fff"></path><path d="M68,316.71c0,.15,5.09,17.94-13.85,21.65-8.83,1.74-12.93-4.22-13.49-6.24-3-10.93,11.29-13.62,10.91-13.73-17.78-5-16.23,9-16.46,9.68-1.2-1.29-2.93-5,.69-9.33,4.78-5.76,6.36-12.87,2.41-21.28-1.52-3.23-7-5.36-7.8-5.07,1.47.37,2.39,5.48,1.39,8.48s-2.95,5.13-5.14,7.25a22.59,22.59,0,0,0-7,9.72A24,24,0,0,0,28,343.59c3.19,2.58,7.55,6,13.59,6.24C67.7,351,76.64,323.65,68,316.71ZM30.89,339.4A21.18,21.18,0,0,1,24.5,332c-1.59-3.09-1.61-5.73-1.52-8.88.25-8.14,10.67-20.57,10.67-20.57S24.3,316.22,24.4,324.9c0,4,1.57,10.44,12.13,17.13A24.26,24.26,0,0,1,30.89,339.4Zm-2.57-13.17c-1.54-1.78-2.4-9.18,3.09-12C28.66,318,28.2,322,28.32,326.23Z" fill="#fff"></path><path d="M366,212.11c2.53-.65,5.14-1.05,8.31,1.44-2.55-3.62-8.12-4.29-12.6-2.5a18.08,18.08,0,0,0-5.11,2.71c-2.08,1.87-3.67,3.55,2,10.7-1.51.06-3.66-.3-4.47-1.08-6.1-5.82-2-12.07-1.24-13.16,2.32-3.49,7.78-6.41,9.6-6.65a9.72,9.72,0,0,1,5,.7,17.29,17.29,0,0,1,5,2.84,14,14,0,0,1,2.93,3.75,12.27,12.27,0,0,1,1.46,5.3c.31,4.06-.46,10-4.32,12.84C372.58,229,370.41,218.69,366,212.11Z" fill="#fff"></path><path d="M349.39,284.5a14,14,0,0,1,2-8.8c.46-.75,1-1.45.13-2.12-1.66,3.24-4.43,5.84-4.14,10.13-2.45,1.48-22,4.15-42.93,36.4.95-6.69,8.73-20.94,11.48-24.95A58.06,58.06,0,0,1,325.25,285c3.33-3,14-11.34,15-12.29,0-.59.07-1.44.11-2.3-.84,2.27-9.85.48-10.69.09.19-1.26.47-2.24.77-4,2,0,23-9.88,23.51-10.31a29.84,29.84,0,0,1-.84,4.44,9.25,9.25,0,0,0,5.7-4.93,13.71,13.71,0,0,0,1.72-8.18,20.09,20.09,0,0,0,2.16-4.32,27.23,27.23,0,0,0-.79-16c-1.21-3.41-5.57-10.55-5.57-10.55l1.82-1.33s6.61,14.86,7.95,15.2c-1.61-4.49-6.6-16.07-6.6-16.07l1.65-.78s7.06,14.76,7.08,16.59c.44-1-.56-8-5.65-17.08.56-.18,1.23-.51,1.73-.67A50.88,50.88,0,0,1,371.57,244a87.2,87.2,0,0,1-1.54,8.82,26.07,26.07,0,0,1-1,4.11c-.78,2.05-1.7,4.06-2.66,6-1.74,3.59-3.59,7.13-5.34,10.71-.79,1.6-2.66,7.08-2.88,7.78-.68,2.18-1,4.24.16,6.47,2.62,5,8.83,2.49,8.83,2.49-.72,2.58-3.81,3.25-5.38,3.39A11.59,11.59,0,0,1,349.39,284.5Z" fill="#fff"></path><path d="M331.34,205.69c10.83,8.83,6.14,18.24,2.9,22.9,2.81-.87,5.13-1.93,7.19-5.19a14.42,14.42,0,0,0,1.92-7.66,23.22,23.22,0,0,0-3-11.45,6.16,6.16,0,0,1-.37-1.22c3,2.31,7.14,7.08,9.86,9.36a30.19,30.19,0,0,0,1.93-3.38s-4.78-3.77-6.16-5.56c.09-.12,7,4.24,7,4.24l1.88-1.67-6.21-6.63,7.43,5.42,2-1.36s-8.45-6.5-10.91-8.06a44.52,44.52,0,0,0,7.29-4c3.08-2.63,11.8-14.24,11.49-26.86-.23-9.3-3.44-15.75-4.41-20.27-.5-2.36-1.41-4.75-.64-7.26a19.21,19.21,0,0,1,2.38-4.9,14.87,14.87,0,0,1,3.19-2.57,16.48,16.48,0,0,1,3.2-1.16h0c-.4-.29-5.25-4.69-10.85-1.27a10.39,10.39,0,0,0-3.6,3.15,12,12,0,0,0-1.84,4.61c-.18-.1-2.07-2.16-4.13-2.66a8.57,8.57,0,0,0-5.08.42c-2.67,1.4-10.7,6.56-8.24-5.49,0,0-2.77,1.4-3.68,6.41-.67,3.65-1.85,12.66,7.74,9.34,4.9-1.7,6.52-1.85,8.92-.38-1.62-.12-6.2.13-9.16,2.92s-3.55,6.3-2.92,10.26c1.29,8.09,10.39,7.69,10.41,7.69a12.82,12.82,0,0,0,4.12-2,22.8,22.8,0,0,1-4.68-1,6.52,6.52,0,0,1-3-3.88c-.56-2.91,1.25-4.42,3.51-4.58,4.12-.3,7.92,1.58,9.37,4.84.95,2.14,2.29,4.58.75,13.2-.48,2.71-5.29,14.5-12.81,17.16-3.32,1.18-10.38,1.19-13,.49C331.28,191.47,331.34,205.69,331.34,205.69ZM361,128.79,356.76,134a1.13,1.13,0,0,1,0-.32A6.76,6.76,0,0,1,361,128.79Zm1.81,1.18a14.94,14.94,0,0,0-4.19,7.3C358.43,133.62,358.85,132,362.76,130Z" fill="#fff"></path><path d="M331.45,247.59a6.11,6.11,0,0,1,5,5.07c.77,3.47-.66,6.36-4.35,8,3.1,1.35,5.66.67,8.08-.77a6,6,0,0,0,2.2-2,12.57,12.57,0,0,0,1.68-5,7.38,7.38,0,0,0-1.66-4.74c-1.09-1.57-1-1.75.9-3,.56.36,1.41.6,1.74,1.16,1.42,2.37,3.72,2.83,6.14,3.12,3.47.42,5,3.29,4.11,6.75-.19.75-.27,1.32-.47,2.37a4.31,4.31,0,0,0,2.19-2.25,13.46,13.46,0,0,0,.51-14.47,10,10,0,0,0-2.06-2.36,1.61,1.61,0,0,1-.46-2.3h4.59c1.54,0,2.19-.54,2.29-2a18.83,18.83,0,0,0-1.34-7.39l-2,1.26c-3.14,2-6.54,1.84-10.06,1.46a55.68,55.68,0,0,0-17.08.78Z" fill="#fff"></path><path d="M335.38,349.83c6-.27,10.39-3.66,13.59-6.24a24,24,0,0,0,8.44-25.75,22.59,22.59,0,0,0-7-9.72c-2.19-2.12-4.18-4.34-5.14-7.25s-.09-8.11,1.38-8.48c-.78-.29-6.28,1.84-7.79,5.07-4,8.41-2.38,15.52,2.41,21.28,3.61,4.34,1.88,8,.69,9.33-.23-.71,1.31-14.7-16.47-9.68-.37.11,13.93,2.8,10.91,13.73-.56,2-4.65,8-13.49,6.24-18.93-3.71-13.87-21.5-13.84-21.65C300.36,323.65,309.3,351,335.38,349.83Zm5.1-7.8c10.55-6.69,12.08-13.13,12.13-17.13.1-8.68-9.26-22.35-9.26-22.35S353.77,315,354,323.12c.1,3.15.07,5.79-1.52,8.88a21.15,21.15,0,0,1-6.38,7.4A24.64,24.64,0,0,1,340.48,342Zm5.11-27.76c5.5,2.78,4.63,10.18,3.09,12C348.81,322,348.35,318,345.59,314.27Z" fill="#fff"></path><rect x="181.35" y="56.65" width="13.35" height="3.34" fill="#fff"></rect><rect x="181.35" y="50.41" width="13.35" height="3.34" fill="#fff">
</rect><rect x="181.35" y="44.17" width="13.35" height="3.34" fill="#fff"></rect><rect x="181.35" y="37.93" width="13.35" height="3.34" fill="#fff"></rect><rect x="181.35" y="31.69" width="13.35" height="3.34" fill="#fff"></rect><rect x="181.35" y="25.45" width="13.35" height="3.34" fill="#fff"></rect><rect x="181.35" y="17.49" width="13.35" height="5.06" fill="#fff"></rect><rect x="175.54" width="25.58" height="13.9" fill="#fff"></rect><path d="M204.3,102.13H189.7s-.17,245.81-.11,258.08h-2.52c.06-9.69.1-258.08.1-258.08H172.32s0,246.35.05,256.28c.06,3.51.18,8.65,1.37,11.95,2.86,8.07,14.59,29.64,14.59,29.64s11.74-21.57,14.6-29.64c1.19-3.3,1.4-8.44,1.46-11.95C204.42,349.22,204.3,102.13,204.3,102.13Z" fill="#fff"></path><polygon points="201.8 90.09 195.29 82.57 195.29 63.31 181.35 63.31 181.35 82.57 174.84 90.09 169.91 91.76 169.91 97.74 206.73 97.74 206.73 91.76 201.8 90.09" fill="#fff"></polygon><polygon points="174.84 90.09 169.91 91.76 169.91 97.74 206.73 97.74 206.73 91.76 201.8 90.09 197.15 84.73 179.49 84.73 174.84 90.09" fill="#fff"></polygon><polygon points="166.06 91.76 166.06 88.99 168.68 88.11 172.61 86.78 174.39 84.73 149.8 84.73 144.32 80.18 133.87 80.18 133.87 103.49 144.32 103.49 149.8 97.74 166.06 97.74 166.06 91.76" fill="#fff"></polygon><polygon points="232.39 80.18 226.91 84.73 202.25 84.73 204.03 86.78 207.96 88.11 210.59 88.99 210.59 91.76 210.59 97.74 226.91 97.74 232.39 103.49 242.84 103.49 242.84 80.18 232.39 80.18" fill="#fff"></polygon><rect x="256.65" y="164.71" width="8.04" height="2.01" fill="#fff"></rect><rect x="256.65" y="160.95" width="8.04" height="2.01" fill="#fff"></rect><rect x="256.65" y="157.19" width="8.04" height="2.01" fill="#fff"></rect><rect x="256.65" y="153.43" width="8.04" height="2.01" fill="#fff"></rect><rect x="256.65" y="149.68" width="8.04" height="2.01" fill="#fff"></rect><rect x="256.65" y="145.92" width="8.04" height="2.01" fill="#fff"></rect><rect x="256.65" y="141.12" width="8.04" height="3.05" fill="#fff"></rect><rect x="253.16" y="130.58" width="15.41" height="8.38" fill="#fff"></rect><path d="M270.48,192.11h-8.79s-.11,148.08-.07,155.47H260.1c0-5.84.06-155.47.06-155.47h-8.94s0,148.4,0,154.38c0,2.12.11,5.22.83,7.2,1.72,4.86,8.79,17.86,8.79,17.86s7.07-13,8.79-17.86a25.12,25.12,0,0,0,.88-7.2C270.55,341,270.48,192.11,270.48,192.11Z" fill="#fff"></path><polygon points="268.97 184.86 265.05 180.33 265.05 168.72 256.65 168.72 256.65 180.33 252.74 184.86 249.76 185.86 249.76 189.46 271.94 189.46 271.94 185.86 268.97 184.86" fill="#fff"></polygon><polygon points="252.74 184.86 249.76 185.86 249.76 189.46 271.94 189.46 271.94 185.86 268.97 184.86 266.18 181.62 255.53 181.62 252.74 184.86" fill="#fff"></polygon><polygon points="247.44 185.86 247.44 184.19 249.02 183.66 251.39 182.86 252.46 181.62 237.65 181.62 234.35 178.88 228.05 178.88 228.05 192.93 234.35 192.93 237.65 189.46 247.44 189.46 247.44 185.86" fill="#fff"></polygon><polygon points="287.4 178.88 284.1 181.62 269.25 181.62 270.31 182.86 272.69 183.66 274.27 184.19 274.27 185.86 274.27 189.46 284.1 189.46 287.4 192.93 293.69 192.93 293.69 178.88 287.4 178.88" fill="#fff"></polygon><rect x="112.15" y="164.71" width="8.04" height="2.01" fill="#fff"></rect><rect x="112.15" y="160.95" width="8.04" height="2.01" fill="#fff"></rect><rect x="112.15" y="157.19" width="8.04" height="2.01" fill="#fff"></rect><rect x="112.15" y="153.43" width="8.04" height="2.01" fill="#fff"></rect><rect x="112.15" y="149.68" width="8.04" height="2.01" fill="#fff"></rect><rect x="112.15" y="145.92" width="8.04" height="2.01" fill="#fff"></rect><rect x="112.15" y="141.12" width="8.04" height="3.05" fill="#fff"></rect><rect x="108.66" y="130.58" width="15.41" height="8.38" fill="#fff"></rect><path d="M126,192.11h-8.79s-.11,148.08-.07,155.47H115.6c0-5.84.06-155.47.06-155.47h-8.94s0,148.4,0,154.38a25.09,25.09,0,0,0,.82,7.2c1.72,4.86,8.79,17.86,8.79,17.86s7.07-13,8.79-17.86a25.12,25.12,0,0,0,.88-7.2C126.05,341,126,192.11,126,192.11Z" fill="#fff"></path><polygon points="124.47 184.86 120.55 180.33 120.55 168.72 112.16 168.72 112.16 180.33 108.23 184.86 105.26 185.86 105.26 189.46 127.44 189.46 127.44 185.86 124.47 184.86" fill="#fff"></polygon><polygon points="108.23 184.86 105.26 185.86 105.26 189.46 127.44 189.46 127.44 185.86 124.47 184.86 121.68 181.62 111.03 181.62 108.23 184.86" fill="#fff"></polygon><polygon points="102.94 185.86 102.94 184.19 104.52 183.66 106.89 182.86 107.96 181.62 93.15 181.62 89.85 178.88 83.56 178.88 83.56 192.93 89.85 192.93 93.15 189.46 102.94 189.46 102.94 185.86" fill="#fff"></polygon><polygon points="142.9 178.88 139.6 181.62 124.75 181.62 125.82 182.86 128.19 183.66 129.77 184.19 129.77 185.86 129.77 189.46 139.6 189.46 142.9 192.93 149.19 192.93 149.19 178.88 142.9 178.88" fill="#fff"></polygon><path d="M337,63.09H199.15v10.3H316.21c-1.65,5.44-1.42,10.84-1.41,16.21,0,0-.19,105.21.14,159.87.12,21-10.66,39.76-26.31,53a139.21,139.21,0,0,1-29.35,19.09l-.84.36-.85.36c-13.78,6.49-27.76,12.56-41.7,18.72-9.37,4.14-18.8,8.16-27.52,13.68l-.08-.05-.09.05c-8.72-5.52-18.15-9.54-27.52-13.68-13.94-6.16-27.92-12.23-41.7-18.72a141.1,141.1,0,0,1-31.44-20.14l.4.33c-15.64-13.24-26.43-32-26.3-53,.32-54.66.13-105.21.14-159.87,0-5.37.24-10.77-1.42-16.21H177.49V63.09H39.59c.85,1,1.45,1.78,2.12,2.49,6.48,6.84,9.5,14.85,9.48,24.39C51,145.53,51.3,194.11,51,249.68c-.15,24.3,9.34,43.67,27.35,59.37a151.15,151.15,0,0,0,33,21.74l.9.4.92.39c14.1,6.72,28.48,12.85,42.73,19.27,5.95,2.68,11.91,5.37,17.78,8.23,5.31,2.59,10.36,5.63,14.7,10.28,4.34-4.65,9.38-7.69,14.69-10.28,5.87-2.86,11.83-5.55,17.79-8.23,14.24-6.42,28.62-12.55,42.73-19.27a153.19,153.19,0,0,0,35.14-22.85l-.38.32c18-15.7,27.5-35.07,27.35-59.37-.34-55.57-.06-104.15-.22-159.71,0-9.54,3-17.55,9.47-24.39C335.53,64.87,336.14,64.09,337,63.09Z" fill="#fff"></path></svg>