<svg xmlns="http://www.w3.org/2000/svg" viewBox="0 0 271 293.7"><g data-name="Layer 2"><g data-name="Layer 1"><path d="M32.8 41.5l.5 1.1c1.3 3 2.4 6 3.9 9a24.2 24.2 0 007 7.3c8.3 6.6 16.6 13 24.7 19.7L93.5 99a2.6 2.6 0 001 .5 220.2 220.2 0 00-25-24.3L69 75l-.4-.3.3-.4h.8c6.4 1 12.8 2 19.2 3.4 4.9 1 9.7 2 13.1 6.2 1.3 1.5 2.3 3.2 3.4 4.7l1.7 2a144.2 144.2 0 003-24.9v-.2l-.4-.2a16 16 0 00-.9 2v.1l-.5 2.4a3.7 3.7 0 01-.4.8c-.3-.3-.7-.4-.8-.7a12.2 12.2 0 01-1.1-5.2 12.4 12.4 0 011.1-5.2c1-2.2 2.4-4.3 3.6-6.4-1.6.2-3.5.5-5.3.5-2.4 0-4.2-1-4.6-2.5h2.3a5 5 0 004.9-3.6c1.1-2.7 2.3-5.4 3.6-8a3.8 3.8 0 00.5-1.8 4.1 4.1 0 00-.4-1.7 19.4 19.4 0 00-4.7-7.5 4.7 4.7 0 00-3-1.3h-.4a16 16 0 00-4.7.7H99.3a5.5 5.5 0 01-6.6-1.8 8.6 8.6 0 00-2.7-2 4.2 4.2 0 00-2.2-.6 4.3 4.3 0 00-4.1 3v.1l-.7 2a6 6 0 01-1-1h-.1a11.6 11.6 0 01-2.1-6.6 11.7 11.7 0 014.9-9.6A11.5 11.5 0 0189 9.5l4.8-2a10 10 0 013.7-.9l13.3 1.1a41.8 41.8 0 005 .3h1.4a7.7 7.7 0 007.5-6v-.1a5.7 5.7 0 01.4-1.2 5.9 5.9 0 01.6-.7c.2.3.5.5.5.8.7 2.9.4 6.6-3.1 8.4l-4.2 2.2 4 1.4 4 1.6-2.8 2.3c3 2 6.7 3 8.4 6.5l-.2.3a9.9 9.9 0 01-1.6-.7 8.2 8.2 0 00-4.5-1.4 8 8 0 00-3 .7 41.3 41.3 0 016.9 11l.1.3v.3l5.1 12.8c-2.3-.7-3.6-2.6-5.7-3.6l1.7 3.4a23.2 23.2 0 013.4 9.7V56.8a15.6 15.6 0 01-.3 3.3V59.8a31 31 0 00-5-6.7c-2.2 3.6 3.3 23 7.6 27 4.5-4.6 9.5-22.7 7.4-26.7a9.5 9.5 0 00-3 3.1c-.5.7-.8 1.4-1.1 2a3.8 3.8 0 01-.9.7 2.8 2.8 0 01-.4-.9v-.6-.6a15.8 15.8 0 011.4-6.7v.2c1.1-2.5 2.4-5 3.7-7.6l-5.8 4-.3-.3a5 5 0 01.4-1.2c2.1-5 4.3-10.1 6.9-15.2a48.4 48.4 0 014.6-6.8c.5-.8.4-1.1-.5-1.5a5.3 5.3 0 00-1.3-.1 5 5 0 00-2.7.8l-3.6 1.8a1 1 0 01-.5.1h-.3c1.8-3.8 5.1-5.8 9.3-7.2l-1.5-1-1.4-1.1 7.7-3.1c-3.3-1.7-7-2.8-7.6-6.9V3.8a32.7 32.7 0 01.2-3.4v.2h.5l.6 1.5a8 8 0 004.7 6 8.8 8.8 0 003 .5h.9l14.4-1.2a12.4 12.4 0 002-.3h1.2a13.5 13.5 0 017 2V9a11.4 11.4 0 003 1 8.8 8.8 0 017.3 6.2 13 13 0 01-.2 10.4 16.8 16.8 0 01-1.5 2.2 14.4 14.4 0 01-.8-1.8v-.2c-.7-3.2-3.6-5-7.4-2a15.3 15.3 0 00-2.2 2.1 4 4 0 01-3.3 1.6 3.7 3.7 0 01-1 0l-4.4-1a4.4 4.4 0 00-1.4-.2 4.5 4.5 0 00-4 2.5 94.6 94.6 0 00-4 7 3.3 3.3 0 00-.2 1 3.4 3.4 0 00.3 1.5c.9 2.1 2 4.2 2.8 6.4s1.8 4.2 4.2 4.9a20.8 20.8 0 002.6.1 15.5 15.5 0 002.2 0 5.6 5.6 0 01-.7 1 7.5 7.5 0 01-4.7 1.7h-1.2l-4.6-.9c5.1 5.5 7 11.3 3.6 18-1-1.8-.4-4.2-2.6-5.9a171.1 171.1 0 002.7 26.6l-.1-1-.2-1 .4.1 2.2-2.7a65.3 65.3 0 015-5.5 19 19 0 019.3-4l19.1-3.5 2-.3.3.4-28 26.6.3.3 3.4-2.7 21-17.6 18.7-14.8c4.3-3.2 8.4-6.3 12.5-9.8a25.1 25.1 0 008-14.1V41.3a9 9 0 01.7-1.5 39.6 39.6 0 015.6 11.5v.5a20.6 20.6 0 01.8 5.8 21.6 21.6 0 01-.9 6.4V63.7a12.7 12.7 0 01-6.4 7.6l-20.4 11.4C212 87 204.4 91.3 196.9 96a307.5 307.5 0 00-28 19.8l.6-.5.6-.5-1.2 1 .3.3c1.5-1 3-2 4.5-3.2a215.2 215.2 0 0118.6-11.9l2.3-1.2c6.7-3.8 13.3-7.7 20-11.4 6-3.4 12.3-6.6 18.4-9.8l12-6a68.2 68.2 0 008.4-4.7l-.3.2-.2.1a28.5 28.5 0 004-4l1-1.2a12.4 12.4 0 01.7 4.2 12.7 12.7 0 01-1.6 6.1 10.3 10.3 0 01-3 3.4c-7.7 5-15 10.7-22.4 16.3a95.2 95.2 0 01-21.9 12.4l-.6.2-.6.2c-4.8 1.8-9.7 3.2-14.5 4.7l-13 4a12.2 12.2 0 00-1.8.9h.1l.1.3 23-4.4.4.4a9.1 9.1 0 01-1 1l-11.1 8.4a67 67 0 01-6.4 4.3l-.3.2-.3.1a15.7 15.7 0 01-7.3 1.8 10.9 10.9 0 01-1.9 0H170c-.5 0-.9.4-1.3.7.4.4.7 1 1 1 5.1.8 10.3 1.8 15.2-.5a60.6 60.6 0 005.4-3.3l-.2.1a15 15 0 017.1-1.7h.2l32-.8a22.8 22.8 0 014 .4h-.2a7.2 7.2 0 01-1 1c-5.8 4.2-11.7 8.6-17.7 12.8a54.1 54.1 0 01-5 3.3l-.3.2h-.3a13.6 13.6 0 01-6.4 1.7 14 14 0 01-4-.6h.1l-19-5-9.1-2.6c-.7-.2-1.4-.5-1.8.5a1.3 1.3 0 000 .5 1.3 1.3 0 00.6 1.1 2.1 2.1 0 00.4.2l7.2 2.3 13 4.2 9 2.9c.2 0 .4.1.7.6-1.4.7-2.8 1.5-4.3 2a38 38 0 01-20.8 1.6c-3-.4-6.2-.5-9.3-1a5.3 5.3 0 00-1-.2 5 5 0 00-4.4 2.7l-7.5 10.7a2.5 2.5 0 00-.4 1.4v8.2a.3.3 0 010 .1v1.5l-6.4-3.8a9.7 9.7 0 00-.2 1.2v19.8a4.5 4.5 0 000 .5 4 4 0 003 4 23.8 23.8 0 017.7 4.7c1.4 1 2.7 2.2 4 3.3a2.9 2.9 0 011 .9 12.7 12.7 0 01-5 1 13 13 0 01-5.2-1h.1a21.2 21.2 0 01-8-6.3l-.3 1.7v2a38 38 0 003.2 15.5v-.2l3.8 11a7.3 7.3 0 01.4 2.4 7.4 7.4 0 01-2.3 5.3c-3 3.4-6.2 6.7-9.3 10l-.4.5c-1.7 1.8-1.7 2-3.4 0l-9.8-10.7a7.2 7.2 0 01-2-5 7.2 7.2 0 01.7-3v.1l5.7-15.8a13.9 13.9 0 00.7-4c.2-3 0-5.8 0-9.1l-3.3 2.5a65 65 0 01-5.4 3.5 6.6 6.6 0 01-3 .8h-6.8l-.1-.5 1.2-1 7-6a18.2 18.2 0 014.5-2.3h.2a4 4 0 003.2-4v-19.7a19.2 19.2 0 00-.2-2v.1l-7 3.7-.2-1.2v-6a12 12 0 00-3.1-8 65.7 65.7 0 01-4.8-6.4l-.1-.3-.2-.3a4 4 0 00-3.5-2.1h-.7l-14.3 1.3a31.4 31.4 0 01-4 .3 32.2 32.2 0 01-15.4-3.9h.2a20.9 20.9 0 01-2-1.3h.1l4-1.4 14.3-4.6 11.4-3.6a2.6 2.6 0 001.3-1 1.5 1.5 0 00.2-.5 1.6 1.6 0 00-.2-.8c-.2-.2-.8-.3-1-.2l-14.5 4c-4.8 1.3-10 2.8-15 4a15.8 15.8 0 01-3.2.3 16.1 16.1 0 01-10.4-3.8c-5.2-4-10.7-7.8-16-11.7-1-.8-2-1.5-3.2-2.2a8.2 8.2 0 00-1-.5l.3-.7a12.4 12.4 0 011.5-.1l32.4.8a49.3 49.3 0 016 .4h-.4a10.5 10.5 0 015.7 2.5 12 12 0 008.2 3.3h.5l9.3-.7c.8 0 1.4-.3 1.3-1.4H102c-2.4.2-5.3.4-8.2.4h-.6a17 17 0 01-9.5-4.4l-11-8.2-3-2.3a2.2 2.2 0 01-.3-.6l.1-.5 23 4v-.2a12.8 12.8 0 00-1.5-.6h-.2c-7.7-2.4-15.6-4.7-23.3-7.2a107.8 107.8 0 01-30.3-16.4l.2.2L18 78a13.1 13.1 0 01-2.4-2.2 5.2 5.2 0 01-1.4-3.6 5.2 5.2 0 01.2-1.5l1.2-4.6a4.4 4.4 0 01.6-1 5 5 0 01.8.7c2.3 4 6 5.9 10 7.7S34.7 77 38.5 79c9.2 4.8 18.4 9.6 27.5 14.6 6.9 3.8 13.7 7.9 20.5 11.9A158.8 158.8 0 01105 118l-.4-.3-.2-.2a10.6 10.6 0 001 .7h.1l.2-.3c-.9-.8-1.7-1.6-2.7-2.3-3.8-2.8-7.6-5.7-11.6-8.5a281.2 281.2 0 00-24.1-15.6l-1.4-.8-1.6-.8-17.2-9.7c-4.8-2.8-9.7-5.6-14.5-8.6a13.3 13.3 0 01-6.3-11.1V59a27.5 27.5 0 015.3-16.3l1.2-1.4zm100.8 97a12 12 0 00-.4-2v.2a8.1 8.1 0 00-4.8-4.8 21.5 21.5 0 01-11.8-11v-.2c-3-6.4-3.4-12.8.1-19a21.5 21.5 0 0128-9 19.8 19.8 0 018.5 8.3 21.1 21.1 0 01-4.2 27.3 37 37 0 01-5.6 4h-.4a10.1 10.1 0 00-4.7 5.5c-.4 1 0 1.4 1 1.2a29.1 29.1 0 003.5-.7H142.5a27 27 0 0016.2-12v-.1a26.6 26.6 0 002.7-21v.4A25.7 25.7 0 00147.1 88H146.8a26.7 26.7 0 00-11-2.4 29 29 0 00-6.3.7h.4a25 25 0 00-14 7.8 25.2 25.2 0 00-6.9 17.2 24.8 24.8 0 00.8 6.1V117.1a26.3 26.3 0 0016.9 20.1h.1a16.7 16.7 0 006.4 1.3h.6zM106 13.9c-1.6-1.3-3-2.7-4.8-2.4a38.2 38.2 0 00-7.4 2h.5c-.7.2-.7.8 0 1.2A19.2 19.2 0 0097 16h.2a5.1 5.1 0 001.8.3h.2a5.5 5.5 0 001.1 0c1.9-.6 3.6-1.5 5.8-2.3zm71.6-.3c-1.7-.6-3.3-1.3-5-1.8-2.4-.8-4.2.4-6 1.7 3 2.7 8.7 3.7 11 .2z">
</path><path d="M105.3 199.6a54.8 54.8 0 01-5.7 1.5 41 41 0 00-19.4 9.5l-4.6 4c-.6.5-.8 1-.3 1.6l5.5 7.2a1.5 1.5 0 001.2.6 1.5 1.5 0 00.2 0 1.8 1.8 0 00.2 0 10.6 10.6 0 004.6-2.4 5.4 5.4 0 002.6-3.9c0-.9 1.3-1.7 2-2.5h.4a1.4 1.4 0 011 .4l4 5.3a.9.9 0 01.3.6.9.9 0 01-.3.7h-.1a3.9 3.9 0 01-3 1.4H93a3 3 0 00-1.7.6l-6.4 4.6a2.4 2.4 0 00-1.2 2 2.3 2.3 0 00.2 1 44.4 44.4 0 002.3 4.7l-.1-.2v-.3a148.3 148.3 0 0012.2 17.1l-.1-.2a1.4 1.4 0 001.2.6 1.4 1.4 0 00.7-.2h.2c.8-.6 1.2-.4 1.9.2a4 4 0 01.9 5.7 5.3 5.3 0 01-4 2.9c-2.8.5-4.7 0-5.9-2.6a4.8 4.8 0 00-.4-.7c-1.2-1.8-1.2-1.8.3-3.2.8-.7.5-1.2 0-1.8l-4.9-6.7a80.8 80.8 0 00-9.6-11.3c-2-2-3.4-2-5.6-.1-1.6 1.3-3.3 2.4-4.8 3.8a18.3 18.3 0 00-2 2.9 30.3 30.3 0 01-2.3 3c0 .1-.9 0-1-.2l-4.4-5.7a.9.9 0 010-1.2l.2-.2a4.8 4.8 0 013.5-1.5 4.5 4.5 0 01.7 0h.2a2.8 2.8 0 001.8-.6l3.8-3.1a4.8 4.8 0 00.9-.9 1.8 1.8 0 00.5-1.3 1.8 1.8 0 00-.5-1.3c-1.7-2-3.1-4.2-4.6-6.2a3.8 3.8 0 00-1.5-1 10 10 0 01-4.8-3c-.2-.3-.9-.4-1.3-.5-1.7-.2-2-.6-2.1-2.2a2.2 2.2 0 00-.9-1.4c-2.3-1.6-2.6-2.6-1.4-5.2a2.6 2.6 0 00.3-1.2 2.8 2.8 0 00-.7-1.8l-16.6-22.3c-5-7-10.3-13.8-15.3-20.8-2.9-4-5.5-8.3-8.3-12.5a15.7 15.7 0 01-2.7-8.8v-.7-.6c0-1.3.5-1.6 1.8-1.4a15.4 15.4 0 019.8 6q7.9 9.8 15.6 19.7l16.4 21.7 7.8 10.5c.3.3.3.8.6 1a5.5 5.5 0 001.3 1 9.4 9.4 0 012.3 1.2 12.5 12.5 0 007.3 4.3 4 4 0 00.5 0 4.5 4.5 0 00.5 0 5.1 5.1 0 001.7-.3 38.2 38.2 0 0012.5-7.4 4.2 4.2 0 00.9-5.2l-1 1c-.2.3-.6 1.5-1.6.8a3 3 0 00-.8.7 5.7 5.7 0 01-4.2 2.2 9.9 9.9 0 00-.2-7.4 7.1 7.1 0 01-6 3.3 7 7 0 01-3.1-.8l1.5-1.5a6.6 6.6 0 001.2-7.8 25.2 25.2 0 01-1-2.4v-.4a7 7 0 01-.6-2.6 7 7 0 011.9-4.7 15.1 15.1 0 014.6-4h.1l19-9.8 4.8-2.5c-1.6 5.7 1.3 10.2 3 15.3l12.5-7.3a10.4 10.4 0 01.2 1.4v6.7a3.3 3.3 0 01-1.7 2.8 20.2 20.2 0 01-2.8 1.7h-.2c-2.2 1.2-2.5 3.1-2.6 5.5v5.3c.3 1.5-.9 2.4-2.1 3l-6 3.2c-1.1.5-1.4 1-.6 2a30.2 30.2 0 012 3v.4zM153 164.4l8.6 5 2.9 1.7a1.1 1.1 0 00.6.2 1.3 1.3 0 001-.4 1.7 1.7 0 00.2-.5 54.3 54.3 0 002-6v-.4l.1-.5a25.8 25.8 0 00.4-3.6v-3c.8.4 1.6.6 2.2 1l14.5 7.5c3 1.6 6 3.1 8.7 5a17.7 17.7 0 014 3.9 5 5 0 01.4 5.2l-1.8 6a5.6 5.6 0 00-.3 1.7 5.5 5.5 0 002.1 4.5c1 .7.9 1.1-.2 1.5a5.6 5.6 0 01-2 .4h-.2a5.6 5.6 0 01-3.3-1.1 27.8 27.8 0 01-2.6-2.1 9.9 9.9 0 00-.1 7 5.8 5.8 0 01-4.7-2.5c-2 2-1.8-1.2-3-1.2a3.5 3.5 0 00.6 4.5 8.8 8.8 0 001.6 1.3l9.4 5.7c4 2.2 7.4 1 10.5-1.6l2-2a11.9 11.9 0 011.7-.8 4.6 4.6 0 001.6-1l13.3-17.6 10-13.2c4.5-5.9 8.7-12 13.5-17.6a73 73 0 018.7-8.2l.2-.1.1-.2a10 10 0 013.6-1.2c1-.3 1 .4 1 1v1a16.6 16.6 0 01-2.4 8.6 129.7 129.7 0 01-11.7 16.9l.2-.3-17.5 23.7-11 14.8a2.5 2.5 0 00-.6 1.7 2.4 2.4 0 00.2 1.2c1.3 2.7 1.1 3.4-1.3 5.3a2.2 2.2 0 00-.8 1.3c-.1 1.6-.5 2-2 2.4a11 11 0 00-2.2 1l-3.8 2a8.3 8.3 0 00-2 1.7c-1.6 2-3 4.2-4.5 6.2a1.6 1.6 0 00-.5 1.1 1.7 1.7 0 00.4 1 16.1 16.1 0 001.9 2v.1l2 1.4a4 4 0 003.2 1.5 4 4 0 00.8 0h.3a3.2 3.2 0 011.6.4c2.1.9 2.3 1.6.8 3.5-1 1.3-2 2.5-2.8 3.8-.6.8-1 1-1.9.3a5.2 5.2 0 01-2.1-3.3 2.6 2.6 0 00-1-1.6l-6.9-5a2 2 0 00-1.2-.5 2 2 0 00-1.3.5 36.3 36.3 0 00-8 7.7c-3 3.9-5.6 7.9-8.4 11.7-.7 1-.9 1.8.3 2.5a1.2 1.2 0 01.8 1.1 1.5 1.5 0 010 .2 1.8 1.8 0 010 .3 1.3 1.3 0 01-.3.5l-2.8 3.8a2 2 0 01-1.3.5 19.8 19.8 0 00-2.3-.2c-2.6.3-3.6-1.3-4.4-3.3-1.4-3.1-1.5-3.1.6-5.7l.7-.8c1.5-2 1.5-2 3.6-.8.8.4 1.1 0 1.5-.5l5.9-7.6 7-10.7a16.5 16.5 0 001.3-3V230.8a2 2 0 00.3-.9 2 2 0 00-1-1.7c-2-1.6-4.1-3.2-6.3-4.7a6 6 0 00-2.2-.6 11.8 11.8 0 01-2.1-.3c-2.1-.6-2.4-1.7-1-3.4 1-1.4 2-2.8 3.2-4.2.4-.7.8-.7 1.5-.3a3.9 3.9 0 012.3 3.5c0 .5.5 1 1 1.5a12.2 12.2 0 006.1 3.6h.4a1.6 1.6 0 001-.4c1.9-2.2 3.5-4.4 5.3-6.7a1.6 1.6 0 00.5-1.1 1.5 1.5 0 00-.5-1 1.5 1.5 0 00-.4-.4c-2.3-1.9-4.4-4-6.8-5.7a35.6 35.6 0 00-11-5.6l-.2-.1h-.3c-2.9-.9-6-1.4-8.9-2l-1-.3c-1-.3-1.2-.7-.5-1.6l1.5-2.3a1 1 0 000-1.4 1 1 0 00-.4-.2l-5.7-3.3c-2-1-2.1-1.7-2.5-4-.1-3.6 1.2-5.9-.8-8.1a17.5 17.5 0 00-4.5-3.4h-.1a3.8 3.8 0 01-2.6-3.6v-.4-.3l.2-4.6v-2.4zM136.6 252.4c1.2-5.9 5.8-9 8.9-13.1l.4.1a14.7 14.7 0 00.3 2.3l2 13a36 36 0 011.5 9v.1a20.1 20.1 0 01-2 8V271.4c-3 6.3-6 12.6-9.2 18.8l-1.3 2.6a5.4 5.4 0 01-.6.8 3.8 3.8 0 01-.9-.8c-2-3.7-3.8-7.5-5.7-11.3l-4.5-8.8a24 24 0 01-2.2-10v-.2a26 26 0 01.4-4.1v.2c.7-6 1.7-12.2 2.7-18.3a5.4 5.4 0 01.4-1 5.7 5.7 0 011 .7 73 73 0 014.7 5.4l.1.2.1.1a46 46 0 013 5.1l.1.3.1.3.7 1zM44.8 29.2l2.6 3.7a70.3 70.3 0 0011.4 11.8h.2a31.8 31.8 0 013 2.7c2.5 2.8 5.8 3.6 9 4.4a18.7 18.7 0 0110.6 7v.1c3.6 4.7 7 9.6 10.5 14.4a17.8 17.8 0 011 1.5v.1a8.6 8.6 0 01-2.4-.2l-14.3-2.5c-4.3-.8-8.6-1.6-12.8-2.6a14 14 0 01-5-2.7C55 64 51.6 61 48.4 58a20.5 20.5 0 01-6.7-15.2 20.2 20.2 0 01.2-2.6v.1a41.1 41.1 0 012.7-11v.2l-.2.3a4.4 4.4 0 01.4-.7zM227 30a45 45 0 011.8 5.1l.1.4v.3a20.8 20.8 0 011 6.2 21.2 21.2 0 01-3 10.9v-.1a36.2 36.2 0 01-5.8 6.7c-2.7 2.6-5.7 4.8-8.5 7.2A18 18 0 01205 70c-3.8 1-7.6 1.6-11.4 2.3l-13.4 2.4-2 .3a6.6 6.6 0 01.5-1.3c3.6-5 7.2-10 11-15a17 17 0 0110.5-6.7H200.5a20 20 0 0011-5.9l10.9-10.8c1.4-1.4 2.6-3 3.8-4.6l.8-.8zM267.4 100.9l-2.2 2.9a43.5 43.5 0 01-17 11.8l-.4.1h-.3a62.6 62.6 0 01-19.6 3.5l-28.2 1.6-2.4.1c.1-.4.1-.7.3-.8a113.4 113.4 0 0112.7-9l.5-.3a39.3 39.3 0 0112-3.8h.4c5.8-1 11.6-1.8 17.5-2.6l15.6-2 8.3-1.4a17 17 0 012 0h.8zM73.6 121l-4-.3-11.3-.6c-6.4-.4-12.8-.8-19.2-1.4a86.8 86.8 0 01-13.7-2.4l.6.2h.6a40.7 40.7 0 01-18-10c-1.4-1.3-2.7-2.7-4-4.2a9 9 0 01-.9-1.4 12.2 12.2 0 012.8.2l35.5 5c5.8.7 11.7 1.1 17 3.9a69 69 0 018.2 5.2l-.4-.3 5.9 4.5 1.1 1zM47.6 102.8l-4.7-.5-5.7-.6-11-1.7L12.6 98l-9.3-1.4c-1.9-.2-2.6-1-3-3a31.7 31.7 0 01-.3-4.8 32 32 0 013.3-14.2l-.1.2-.1.2 1.4-3a5.6 5.6 0 01.8-1.1L7 74.9a10.7 10.7 0 004.4 4.7h.1c3.9 2.5 8 4.6 11.8 7l23.4 14.8a8.8 8.8 0 011.1 1zM222.6 102.6l5.6-3.8 17-11 14.2-8.3 2.4-1.6a8 8 0 003.6-5.5 8 8 0 01.5-1.8l.5.4c1.3 4 2.8 7.8 4 11.8a21.4 21.4 0 01.6 5.3 22.3 22.3 0 01-1 6.5l.1-.1v-.2c-.3 1.4-1.5 1.7-2.7 2l-12.5 2-18.7 3-12.4 2h-1zM121.2 263a3.6 3.6 0 01-1-.6c-3.3-3.6-6.9-7.2-9-11.8a16 16 0 01-1.5-7v-.1a16.6 16.6 0 012.8-9.3 110 110 0 017-10c2-2.9 4.3-5.6 6.4-8.4a6.6 6.6 0 00.6-1.1l.6.4-.8 2.4-4.5 11.3a4.3 4.3 0 00-.4 1.8 4.5 4.5 0 00.5 2 20 20 0 001.9 3 8.7 8.7 0 012 5.6v.1a8.5 8.5 0 01-.3 2c-1.5 6.2-2.7 12.5-4 18.7a5.6 5.6 0 01-.3 1zM151.8 263l-1-4.4-3.4-16c-.2-.8-.5-1.7-.6-2.6v-.3-.4a4.1 4.1 0 011.6-3.2 6.9 6.9 0 002.7-5.5 7 7 0 00-.6-3v.1l-3.4-9.6a8.3 8.3 0 01-.3-1.7l.4-.2a8 8 0 01.9.9c2.5 3.4 5.3 6.7 7.5 10.3a68.2 68.2 0 015.6 10l.2.4.2.4a15.7 15.7 0 011 5.8 15.9 15.9 0 01-1.9 7.7c-2 4.3-5.6 7.6-8.4 11.4zM171.4 79.5a5.7 5.7 0 01-.2-1.2c.3-5.1.4-10.1 1-15.1a20.4 20.4 0 014.1-9.3l9.7-13.7a2.2 2.2 0 011-.8c.2 1.4.4 2.9.4 4.4l.1 4a41.3 41.3 0 010 4.2v-.2a22.2 22.2 0 01-4 11.6l-11 15.3a10.2 10.2 0 00-.6 1v.2zM84.1 39.2l5 6.7 5.4 7.7A23 23 0 0199.6 68v1.1c-.2 3 0 6 0 8.9a5.1 5.1 0 01-.4 1.3 4.2 4.2 0 01-1-.8l-10-14a24.8 24.8 0 01-4.6-13.8c-.2-3.7.2-7.3.3-11a3.2 3.2 0 01.3-.5z"></path><path d="M146 171l4.3 2.5 7 4.4a4.7 4.7 0 012.4 4v.4l-.4 9.7c0 1.5-.2 1.6-1.5.9a448 448 0 01-9.6-5.4 4.2 4.2 0 01-2-3.6v-.2a.7.7 0 010-.1v-11a5.3 5.3 0 010-.6v-1zM126.6 171.5V183a5 5 0 01-2.4 4.2l-9.8 5.8a4.6 4.6 0 01-1 .3c0-1.5-.2-2.8-.3-4.2a44.9 44.9 0 00-.2-5.7 6.3 6.3 0 010-.9 6.3 6.3 0 013.6-5.6l9-5a6.3 6.3 0 01.9-.3zM153.3 205.9c3 .1 6.2.2 9.2.5a6.2 6.2 0 013 1.4l8.5 6.8a4.3 4.3 0 01.5.6c0 .2 0 .3-.2.3a47.5 47.5 0 01-9 0h.1a15.7 15.7 0 01-5.7-3.2c-2.2-1.6-4-3.5-6.1-5.3a3.3 3.3 0 01-.4-.5zM162 224.9l-3.1-2.5-3.5-3a12.4 12.4 0 01-5.1-10l-.2-4a9 9 0 011.4 1v-.1c2.7 2.4 5.4 4.6 7.9 7.2a10 10 0 012.2 4.4 45.1 45.1 0 01.8 6.4v.2zM118.9 206.7l-8 6.2c-.9.6-1.6 1.3-2.5 1.8a4 4 0 01-1.7.9l-9.4.6-.1-.5a8.6 8.6 0 01.9-1l7.6-6.2a10.9 10.9 0 016.3-2.4c2.2-.2 4.5 0 6.7 0zM122.4 206c-.8 3.8-.6 8-4 11l-6 5.6a24.4 24.4 0 01-2.4 2l-.4-.2.7-5.3c.5-5 3.8-8 7.6-10.8l2.3-1.8a17.7 17.7 0 011.7-1h.2zM97.7 14.4c2 1.2 3 0 5-.8-2.2-1.5-3.5.5-5 .8zM169.4 13.6c2 .4 3.1 1.6 5 .4-1.5 0-2.6-2.3-5-.4z"></path></g></g></svg>