<svg width="24" height="24" viewBox="0 0 24 24" fill="none" xmlns="http://www.w3.org/2000/svg">
<mask id="path-1-inside-1_425_5079" fill="white">
<path fill-rule="evenodd" clip-rule="evenodd" d="M12 3.375C6.43479 3.375 1.70693 6.96014 0 11.9468L4.94845 13.0863L5.93814 12.9317L7.02062 13.643L6.34021 14.6018L7.42268 15.9317L8.16495 15.808L8.28866 16.4575H9.09278L9.80412 18.7771C9.97938 18.8698 10.4165 19.142 10.7629 19.4884C11.1093 19.8348 11.4433 20.3338 11.567 20.5399H12H12.433C12.5567 20.3338 12.8907 19.8348 13.2371 19.4884C13.5835 19.142 14.0206 18.8698 14.1959 18.7771L14.9072 16.4575H15.7113L15.8351 15.808L16.5773 15.9317L17.6598 14.6018L16.9794 13.643L18.0619 12.9317L19.0515 13.0863L24 11.9468C22.2931 6.96014 17.5652 3.375 12 3.375ZM12 15.1894C12.6832 15.1894 13.2371 14.6356 13.2371 13.9523C13.2371 13.2691 12.6832 12.7152 12 12.7152C11.3168 12.7152 10.7629 13.2691 10.7629 13.9523C10.7629 14.6356 11.3168 15.1894 12 15.1894Z"/>
</mask>
<path d="M0 11.9468L-0.946108 11.623L-1.30533 12.6724L-0.224402 12.9213L0 11.9468ZM4.94845 13.0863L4.72405 14.0608L4.91214 14.1041L5.10283 14.0744L4.94845 13.0863ZM5.93814 12.9317L6.48732 12.096L6.16492 11.8841L5.78377 11.9437L5.93814 12.9317ZM7.02062 13.643L7.83613 14.2218L8.43598 13.3765L7.5698 12.8073L7.02062 13.643ZM6.34021 14.6018L5.5247 14.0231L5.08456 14.6433L5.56464 15.2331L6.34021 14.6018ZM7.42268 15.9317L6.64712 16.563L7.01393 17.0136L7.58708 16.9181L7.42268 15.9317ZM8.16495 15.808L9.14729 15.6209L8.96444 14.6609L8.00055 14.8216L8.16495 15.808ZM8.28866 16.4575L7.30632 16.6446L7.46116 17.4575H8.28866V16.4575ZM9.09278 16.4575L10.0488 16.1643L9.83208 15.4575H9.09278V16.4575ZM9.80412 18.7771L8.84807 19.0703L8.96967 19.4668L9.33623 19.6608L9.80412 18.7771ZM10.7629 19.4884L11.47 18.7813L11.47 18.7813L10.7629 19.4884ZM11.567 20.5399L10.7095 21.0544L11.0008 21.5399H11.567V20.5399ZM12.433 20.5399V21.5399H12.9992L13.2905 21.0544L12.433 20.5399ZM13.2371 19.4884L12.53 18.7813L12.53 18.7813L13.2371 19.4884ZM14.1959 18.7771L14.6638 19.6608L15.0303 19.4668L15.1519 19.0703L14.1959 18.7771ZM14.9072 16.4575V15.4575H14.1679L13.9512 16.1643L14.9072 16.4575ZM15.7113 16.4575V17.4575H16.5388L16.6937 16.6446L15.7113 16.4575ZM15.8351 15.808L15.9995 14.8216L15.0356 14.6609L14.8527 15.6209L15.8351 15.808ZM16.5773 15.9317L16.4129 16.9181L16.9861 17.0136L17.3529 16.563L16.5773 15.9317ZM17.6598 14.6018L18.4354 15.2331L18.9154 14.6433L18.4753 14.0231L17.6598 14.6018ZM16.9794 13.643L16.4302 12.8073L15.564 13.3765L16.1639 14.2218L16.9794 13.643ZM18.0619 12.9317L18.2162 11.9437L17.8351 11.8841L17.5127 12.096L18.0619 12.9317ZM19.0515 13.0863L18.8972 14.0744L19.0879 14.1041L19.2759 14.0608L19.0515 13.0863ZM24 11.9468L24.2244 12.9213L25.3053 12.6724L24.9461 11.623L24 11.9468ZM0.946108 12.2707C2.51885 7.67602 6.87522 4.375 12 4.375V2.375C5.99436 2.375 0.895015 6.24425 -0.946108 11.623L0.946108 12.2707ZM5.17286 12.1118L0.224402 10.9723L-0.224402 12.9213L4.72405 14.0608L5.17286 12.1118ZM5.78377 11.9437L4.79408 12.0983L5.10283 14.0744L6.09252 13.9197L5.78377 11.9437ZM7.5698 12.8073L6.48732 12.096L5.38897 13.7674L6.47144 14.4787L7.5698 12.8073ZM7.15571 15.1806L7.83613 14.2218L6.20511 13.0643L5.5247 14.0231L7.15571 15.1806ZM8.19824 15.3004L7.11577 13.9705L5.56464 15.2331L6.64712 16.563L8.19824 15.3004ZM8.00055 14.8216L7.25828 14.9453L7.58708 16.9181L8.32935 16.7944L8.00055 14.8216ZM9.271 16.2704L9.14729 15.6209L7.18261 15.9951L7.30632 16.6446L9.271 16.2704ZM9.09278 15.4575H8.28866V17.4575H9.09278V15.4575ZM10.7602 18.4839L10.0488 16.1643L8.13673 16.7507L8.84807 19.0703L10.7602 18.4839ZM11.47 18.7813C11.0334 18.3447 10.5068 18.0175 10.272 17.8933L9.33623 19.6608C9.45201 19.7221 9.7996 19.9393 10.0558 20.1955L11.47 18.7813ZM12.4245 20.0255C12.2817 19.7875 11.899 19.2103 11.47 18.7813L10.0558 20.1955C10.3196 20.4593 10.6049 20.88 10.7095 21.0544L12.4245 20.0255ZM12 19.5399H11.567V21.5399H12V19.5399ZM12.433 19.5399H12V21.5399H12.433V19.5399ZM12.53 18.7813C12.101 19.2103 11.7183 19.7875 11.5755 20.0255L13.2905 21.0544C13.3951 20.88 13.6804 20.4593 13.9442 20.1955L12.53 18.7813ZM13.728 17.8933C13.4932 18.0175 12.9666 18.3447 12.53 18.7813L13.9442 20.1955C14.2004 19.9393 14.548 19.7221 14.6638 19.6608L13.728 17.8933ZM13.9512 16.1643L13.2398 18.4839L15.1519 19.0703L15.8633 16.7507L13.9512 16.1643ZM15.7113 15.4575H14.9072V17.4575H15.7113V15.4575ZM14.8527 15.6209L14.729 16.2704L16.6937 16.6446L16.8174 15.9951L14.8527 15.6209ZM16.7417 14.9453L15.9995 14.8216L15.6707 16.7944L16.4129 16.9181L16.7417 14.9453ZM16.8842 13.9705L15.8018 15.3004L17.3529 16.563L18.4354 15.2331L16.8842 13.9705ZM16.1639 14.2218L16.8443 15.1806L18.4753 14.0231L17.7949 13.0643L16.1639 14.2218ZM17.5127 12.096L16.4302 12.8073L17.5286 14.4787L18.611 13.7674L17.5127 12.096ZM19.2059 12.0983L18.2162 11.9437L17.9075 13.9197L18.8972 14.0744L19.2059 12.0983ZM23.7756 10.9723L18.8271 12.1118L19.2759 14.0608L24.2244 12.9213L23.7756 10.9723ZM12 4.375C17.1248 4.375 21.4812 7.67602 23.0539 12.2707L24.9461 11.623C23.105 6.24425 18.0056 2.375 12 2.375V4.375ZM12.2371 13.9523C12.2371 14.0833 12.131 14.1894 12 14.1894V16.1894C13.2355 16.1894 14.2371 15.1878 14.2371 13.9523H12.2371ZM12 13.7152C12.131 13.7152 12.2371 13.8214 12.2371 13.9523H14.2371C14.2371 12.7168 13.2355 11.7152 12 11.7152V13.7152ZM11.7629 13.9523C11.7629 13.8214 11.869 13.7152 12 13.7152V11.7152C10.7645 11.7152 9.76289 12.7168 9.76289 13.9523H11.7629ZM12 14.1894C11.869 14.1894 11.7629 14.0833 11.7629 13.9523H9.76289C9.76289 15.1878 10.7645 16.1894 12 16.1894V14.1894Z" fill="white" mask="url(#path-1-inside-1_425_5079)"/>
</svg>
