<svg width="36" height="35" viewBox="0 0 36 35" fill="none" xmlns="http://www.w3.org/2000/svg">
<path fill-rule="evenodd" clip-rule="evenodd" d="M18.0749 34.2687C27.5086 34.2687 35.1561 26.6212 35.1561 17.1875C35.1561 7.75382 27.5086 0.106293 18.0749 0.106293C8.64118 0.106293 0.993652 7.75382 0.993652 17.1875C0.993652 26.6212 8.64118 34.2687 18.0749 34.2687ZM18.0758 8.31288L10.3896 12.7505V13.7562H12.4377L9.25225 18.5171L6.06679 13.7562H8.11211V11.4356L18.0758 5.68305L28.0394 11.4356V15.9231L26.8598 14.1601L25.7619 15.801V12.7505L18.0758 8.31288ZM9.25151 19.9228L10.3896 18.2218V21.6257L18.0758 26.0633L25.7619 21.6257V20.5235H23.6745L26.86 15.7626L30.0455 20.5235H28.0394V22.9406L18.0758 28.6931L8.11211 22.9406V18.2198L9.25151 19.9228ZM18.0751 21.7929C20.6449 21.7929 22.7281 19.7097 22.7281 17.1399C22.7281 14.5702 20.6449 12.487 18.0751 12.487C15.5054 12.487 13.4222 14.5702 13.4222 17.1399C13.4222 19.7097 15.5054 21.7929 18.0751 21.7929ZM17.7237 15.227H18.4271V16.8368H20.0363V17.5401H18.4271V19.1493H17.7237V17.5401H16.1141V16.8368H17.7237V15.227Z" fill="white"/>
</svg>
