<svg width="36" height="35" viewBox="0 0 36 35" fill="none" xmlns="http://www.w3.org/2000/svg">
<path fill-rule="evenodd" clip-rule="evenodd" d="M18.0749 34.9438C27.5086 34.9438 35.1561 27.2963 35.1561 17.8626C35.1561 8.42887 27.5086 0.781342 18.0749 0.781342C8.64118 0.781342 0.993652 8.42887 0.993652 17.8626C0.993652 27.2963 8.64118 34.9438 18.0749 34.9438ZM18.0751 8.60726L10.0596 13.235V22.4906L18.0751 27.1184L26.0906 22.4906V13.235L18.0751 8.60726ZM28.1404 12.0516L18.0751 6.24042L8.00982 12.0516V23.674L18.0751 29.4852L28.1404 23.674V12.0516ZM17.9792 13.0142V22.7532L17.9792 22.7532C17.9898 22.7519 18.0366 22.7455 18.1261 22.7141C18.2372 22.6751 18.3806 22.6095 18.5537 22.511C18.9015 22.3131 19.3024 22.0208 19.7108 21.6704C20.4315 21.052 21.0628 20.3513 21.4043 19.8509V13.9323L17.9795 13.0141L17.9792 13.0142ZM13.4242 13.0955L17.9792 11.872L22.5431 13.0955V20.1575C21.8042 21.4576 19.2666 23.854 17.9792 23.854C16.6918 23.854 14.1631 21.4576 13.4242 20.1575V13.0955Z" fill="white"/>
</svg>
