<svg width="20" height="20" viewBox="0 0 20 20" fill="none" xmlns="http://www.w3.org/2000/svg">
<path fill-rule="evenodd" clip-rule="evenodd" d="M2.50024 11.5C3.05253 11.5 3.50024 11.9477 3.50024 12.5V15.8333C3.50024 16.0101 3.57048 16.1797 3.69551 16.3047C3.82053 16.4298 3.9901 16.5 4.16691 16.5H15.8336C16.0104 16.5 16.18 16.4298 16.305 16.3047C16.43 16.1797 16.5002 16.0101 16.5002 15.8333V12.5C16.5002 11.9477 16.948 11.5 17.5002 11.5C18.0525 11.5 18.5002 11.9477 18.5002 12.5V15.8333C18.5002 16.5406 18.2193 17.2189 17.7192 17.719C17.2191 18.219 16.5408 18.5 15.8336 18.5H4.16691C3.45967 18.5 2.78139 18.219 2.28129 17.719C1.7812 17.2189 1.50024 16.5406 1.50024 15.8333V12.5C1.50024 11.9477 1.94796 11.5 2.50024 11.5Z" fill="#0C0E13"/>
<path fill-rule="evenodd" clip-rule="evenodd" d="M5.12639 7.62639C5.51691 7.23587 6.15008 7.23587 6.5406 7.62639L10.0002 11.0859L13.4597 7.62639C13.8502 7.23587 14.4834 7.23587 14.8739 7.62639C15.2645 8.01691 15.2645 8.65008 14.8739 9.0406L10.7073 13.2073C10.3167 13.5978 9.68358 13.5978 9.29306 13.2073L5.12639 9.0406C4.73586 8.65008 4.73586 8.01691 5.12639 7.62639Z" fill="#0C0E13"/>
<path fill-rule="evenodd" clip-rule="evenodd" d="M10.0002 1.5C10.5525 1.5 11.0002 1.94772 11.0002 2.5V12.5C11.0002 13.0523 10.5525 13.5 10.0002 13.5C9.44796 13.5 9.00024 13.0523 9.00024 12.5V2.5C9.00024 1.94772 9.44796 1.5 10.0002 1.5Z" fill="#0C0E13"/>
</svg>