<svg width="36" height="35" viewBox="0 0 36 35" fill="none" xmlns="http://www.w3.org/2000/svg">
<path fill-rule="evenodd" clip-rule="evenodd" d="M18.0749 34.6188C27.5086 34.6188 35.1561 26.9713 35.1561 17.5376C35.1561 8.10392 27.5086 0.45639 18.0749 0.45639C8.64118 0.45639 0.993652 8.10392 0.993652 17.5376C0.993652 26.9713 8.64118 34.6188 18.0749 34.6188ZM10.2983 7.28864H13.3757V12.2997H10.2983V7.28864ZM14.468 7.28864H17.5454V12.2997H14.468V7.28864ZM21.7151 7.28864H18.6376V12.2997H21.7151V7.28864ZM21.4835 13.9214V17.0645H13.8887V19.0501H21.4835V19.0503H23.2703V13.9214H25.6856V22.7235H10.2656V13.9214H21.4835ZM25.8842 7.28864H22.8068V12.2997H25.8842V7.28864ZM10.2655 24.2659H25.6855V27.7859H10.2655V24.2659Z" fill="white"/>
</svg>
