<svg width="20" height="20" viewBox="0 0 20 20" fill="none" xmlns="http://www.w3.org/2000/svg">
<path fill-rule="evenodd" clip-rule="evenodd" d="M12.7021 2.09612C13.0926 1.70559 13.7258 1.70559 14.1163 2.09612L19.0406 7.02036C19.3265 7.30636 19.4121 7.73647 19.2573 8.11015C19.1025 8.48382 18.7379 8.72746 18.3334 8.72746H1.66678C1.11449 8.72746 0.666778 8.27975 0.666778 7.72746C0.666778 7.17518 1.11449 6.72746 1.66678 6.72746H15.9192L12.7021 3.51033C12.3116 3.11981 12.3116 2.48664 12.7021 2.09612Z" fill="#0C0E13"/>
<path fill-rule="evenodd" clip-rule="evenodd" d="M7.29813 17.9043C6.9076 18.2948 6.27444 18.2948 5.88391 17.9043L0.95967 12.98C0.673673 12.694 0.588117 12.2639 0.742898 11.8902C0.897679 11.5166 1.26231 11.2729 1.66678 11.2729H18.3334C18.8857 11.2729 19.3334 11.7206 19.3334 12.2729C19.3334 12.8252 18.8857 13.2729 18.3334 13.2729H4.08099L7.29813 16.4901C7.68865 16.8806 7.68865 17.5137 7.29813 17.9043Z" fill="#0C0E13"/>
</svg>