<svg width="24" height="24" viewBox="0 0 24 24" fill="none" xmlns="http://www.w3.org/2000/svg">
<path d="M2 8.77274C1.72386 8.77274 1.5 8.9966 1.5 9.27274C1.5 9.54888 1.72386 9.77274 2 9.77274V8.77274ZM22 9.27274V9.77274C22.2022 9.77274 22.3846 9.65092 22.4619 9.46408C22.5393 9.27724 22.4966 9.06218 22.3536 8.91919L22 9.27274ZM16.4445 3.01009C16.2492 2.81483 15.9326 2.81483 15.7374 3.01009C15.5421 3.20536 15.5421 3.52194 15.7374 3.7172L16.4445 3.01009ZM2 9.77274H22V8.77274H2V9.77274ZM22.3536 8.91919L16.4445 3.01009L15.7374 3.7172L21.6464 9.62629L22.3536 8.91919Z" fill="white"/>
<path d="M22 15.2273C22.2761 15.2273 22.5 15.0034 22.5 14.7273C22.5 14.4511 22.2761 14.2273 22 14.2273V15.2273ZM2 14.7273V14.2273C1.79777 14.2273 1.61545 14.3491 1.53806 14.536C1.46067 14.7228 1.50345 14.9378 1.64645 15.0808L2 14.7273ZM7.55554 20.9899C7.7508 21.1852 8.06738 21.1852 8.26264 20.9899C8.45791 20.7947 8.45791 20.4781 8.26264 20.2828L7.55554 20.9899ZM22 14.2273H2V15.2273H22V14.2273ZM1.64645 15.0808L7.55554 20.9899L8.26264 20.2828L2.35355 14.3737L1.64645 15.0808Z" fill="white"/>
</svg>
