<svg width="95" height="95" viewBox="0 0 95 95" fill="none" xmlns="http://www.w3.org/2000/svg">
<path fill-rule="evenodd" clip-rule="evenodd" d="M47.5 13.3594C25.471 13.3594 6.7566 27.5505 0 47.2896L19.5876 51.8001L23.5052 51.188L27.7899 54.0037L25.0966 57.7988L29.3814 63.063L32.3196 62.5733L32.8093 65.1442H35.9923L38.808 74.3259C39.5017 74.6931 41.232 75.7705 42.6031 77.1416C43.9742 78.5127 45.2964 80.4878 45.7861 81.304H47.5H49.2139C49.7036 80.4878 51.0258 78.5127 52.3969 77.1416C53.768 75.7705 55.4983 74.6931 56.192 74.3259L59.0077 65.1442H62.1907L62.6804 62.5733L65.6186 63.063L69.9034 57.7988L67.2101 54.0037L71.4948 51.188L75.4124 51.8001L95 47.2896C88.2434 27.5505 69.529 13.3594 47.5 13.3594ZM47.5 60.1248C50.2045 60.1248 52.3969 57.9324 52.3969 55.2279C52.3969 52.5234 50.2045 50.331 47.5 50.331C44.7955 50.331 42.6031 52.5234 42.6031 55.2279C42.6031 57.9324 44.7955 60.1248 47.5 60.1248Z" fill="white"/>
</svg>
